# xmcd CD database file
#
# Track frame offsets:
#	150
#	20217
#	35902
#	51644
#	65824
#	78728
#	92783
#	106200
#	118034
#	135967
#	148358
#	163690
#	177199
#	189247
#	203965
#
# Disc length: 2947 seconds
#
# Revision: 0
# Processed by: cddbd v1.5.1PL0 Copyright (c) Steve Scherf et al.
# Submitted via: CdAid (MTCDDB.DLL V2003.12.21)
#
DISCID=e70b810f
DTITLE=Leonardo Paniagua - 30 Exitos - CD 1
DYEAR=1996
DGENRE=Latin
TTITLE0=Dueno De Nada
TTITLE1=Que Tal Te Va Sin Mi
TTITLE2=Haz Amigo, El Favor
TTITLE3=Dime Papa
TTITLE4=El Que Mas Te Ha Querido
TTITLE5=La Incondicional
TTITLE6=Me Recordaras
TTITLE7=Copa De Vino
TTITLE8=Todo Se Derrumbo Dentro De Mi
TTITLE9=Que Quieres Tu De Mi
TTITLE10=Nuestro Loco Amor
TTITLE11=Que Sera
TTITLE12=Mi OrgulloTitle 13
TTITLE13=Me Estoy Acostumbrando
TTITLE14=Dos Amores
EXTD=ID3G:  86 YEAR: 1996
EXTT0=
EXTT1=
EXTT2=
EXTT3=
EXTT4=
EXTT5=
EXTT6=
EXTT7=
EXTT8=
EXTT9=
EXTT10=
EXTT11=
EXTT12=
EXTT13=
EXTT14=
PLAYORDER=
